<?xml version="1.0" encoding="UTF-8"?>
<!DOCTYPE svg PUBLIC "-//W3C//DTD SVG 1.1//EN" "http://www.w3.org/Graphics/SVG/1.1/DTD/svg11.dtd">
<!-- Creator: CorelDRAW X7 -->
<svg xmlns="http://www.w3.org/2000/svg" xml:space="preserve" width="150mm" height="50.3407mm" version="1.1" style="shape-rendering:geometricPrecision; text-rendering:geometricPrecision; image-rendering:optimizeQuality; fill-rule:evenodd; clip-rule:evenodd" viewBox="0 0 15000 5034" xmlns:xlink="http://www.w3.org/1999/xlink">
 <defs>
  <style type="text/css">
   <![CDATA[
    .str1 {stroke:#FBDD60;stroke-width:366.05}
    .str0 {stroke:#A7D4F3;stroke-width:366.05}
    .fil1 {fill:#FBDD60}
    .fil4 {fill:#FBDD60}
    .fil0 {fill:#A7D4F3}
    .fil8 {fill:#B2B3B3;fill-rule:nonzero}
    .fil7 {fill:#2B2A29;fill-rule:nonzero}
    .fil5 {fill:#FEE506;fill-rule:nonzero}
    .fil2 {fill:#FBDD60;fill-rule:nonzero}
    .fil3 {fill:#A7D4F3;fill-rule:nonzero}
    .fil6 {fill:#6CB0E1;fill-rule:nonzero}
   ]]>
  </style>
 </defs>
 <g id="Layer_x0020_1">
  <metadata id="CorelCorpID_0Corel-Layer"/>
  <path class="fil0 str0" d="M1254 3503l0 -986 126 65 142 -65 0 1087 0 124c-91,-72 -180,-147 -268,-225z"/>
  <path class="fil1 str1" d="M1522 2452l-142 65 -126 -65 0 -921c88,-78 177,-153 268,-225l0 1146z"/>
  <path class="fil0 str0" d="M4999 4133l0 -269 0 -1347 70 81 65 -78 71 78 62 -73 0 1339 0 269 0 346c-89,32 -179,62 -268,88l0 -434z"/>
  <path class="fil1 str1" d="M5267 2443l-62 74 -71 -78 -65 78 -70 -81 0 -1302 0 -183 0 -483c89,25 179,55 268,87l0 396 0 183 0 1309z"/>
  <path class="fil0 str0" d="M4053 3424l0 108 0 1096 12 0 0 69c85,7 170,11 256,11l0 -80 0 -825 3 3 -3 -274 0 -108 0 -39 0 -864 -142 65 -126 -65 0 903z"/>
  <path class="fil0 str0" d="M6871 3480l0 -963 126 65 142 -65 0 705c-87,89 -177,175 -268,258z"/>
  <path class="fil1 str1" d="M7139 2452l-142 65 -126 -65 0 -898c91,83 181,169 268,258l0 640z"/>
  <path class="fil0 str0" d="M2190 4133l0 -269 0 -1347 71 81 65 -78 71 78 61 -73 0 1339 0 269 0 187c-90,-44 -179,-91 -268,-141l0 -46z"/>
  <path class="fil1 str1" d="M2458 2443l-61 74 -71 -78 -65 78 -71 -81 0 -1302 0 -183 0 -96c89,-50 178,-97 268,-140l0 236 0 183 0 1309z"/>
  <path class="fil0" d="M6203 935l0 235 0 1347 -71 -81 -65 78 -71 -78 -61 73 0 -1339 0 -136c52,-34 104,-67 156,-99l112 0z"/>
  <polygon class="fil2" points="6386,961 6386,3029 6136,2743 6074,2817 6002,2738 5752,3034 5752,963 5754,961 "/>
  <path class="fil1" d="M5935 2591l61 -74 71 78 65 -78 71 81 0 1302 0 177 -148 0c-40,-25 -80,-51 -120,-77l0 -100 0 -1309z"/>
  <polygon class="fil3" points="5795,2681 5990,2448 6061,2525 6129,2444 6386,2738 6386,4072 5752,4072 5752,2733 "/>
  <path class="fil0 str0" d="M3128 2582l142 -65 126 65 0 1088 -5 2 0 966c-88,-18 -176,-39 -263,-64l0 -856 0 -48 0 -1088z"/>
  <path class="fil1 str1" d="M3128 1506l0 -927 0 -119c85,-24 170,-45 256,-62l0 181 16 0 0 1205 -4 0 0 733 -126 -65 -142 65 0 -733 0 -131 0 -147z"/>
  <path class="fil4 str1" d="M4322 2517l-142 66 -126 -66 0 -1087 5 -3 0 -1020c87,-8 175,-12 263,-12l0 986 0 49 0 1087z"/>
  <path class="fil0 str0" d="M12755 2452l-141 65 -126 -65 0 -1329 0 -47 0 -574c89,29 179,61 267,96l0 478 0 47 0 1329z"/>
  <path class="fil0 str0" d="M3128 2582l142 -65 126 65 0 1088 -5 2 0 966c-88,-18 -176,-39 -263,-64l0 -856 0 -48 0 -1088z"/>
  <path class="fil1 str1" d="M3128 1506l0 -927 0 -119c85,-24 170,-45 256,-62l0 181 16 0 0 1205 -4 0 0 733 -126 -65 -142 65 0 -733 0 -131 0 -147z"/>
  <path class="fil4 str1" d="M4322 2517l-142 66 -126 -66 0 -1087 5 -3 0 -1020c87,-8 175,-12 263,-12l0 986 0 49 0 1087z"/>
  <path class="fil1 str1" d="M8743 3600l0 -1083 126 65 142 -65 0 1087 0 211c-91,-69 -180,-140 -268,-215z"/>
  <path class="fil0 str0" d="M9011 2452l-142 65 -126 -65 0 -1018c88,-75 177,-146 268,-214l0 1232z"/>
  <path class="fil1 str1" d="M9679 4133l0 -269 0 -1347 71 81 65 -78 70 78 62 -73 0 1339 0 269 0 238c-90,-40 -179,-84 -268,-130l0 -108z"/>
  <path class="fil0 str0" d="M9947 2443l-62 74 -70 -78 -65 78 -71 -81 0 -1302 0 -183 0 -157c89,-47 178,-91 268,-131l0 288 0 183 0 1309z"/>
  <path class="fil1 str1" d="M12488 4133l0 -269 0 -1347 70 81 65 -78 71 78 61 -73 0 1339 0 269 0 182c-62,65 -60,144 -103,132 -162,-45 -151,-48 -164,-79l0 -235z"/>
  <path class="fil0" d="M12755 2443l-61 74 -71 -78 -65 78 -70 -81 0 -1302 0 -183 0 -308c111,-221 95,134 267,54l0 254 0 183 0 1309z"/>
  <path class="fil3" d="M12896 2560l-196 234 -70 -77 -69 81 -257 -294 0 -1903 20 -40c5,-9 10,-18 14,-26l601 0 0 1974 -43 51z"/>
  <path class="fil1 str1" d="M11551 2591l62 -74 71 78 65 -78 70 81 0 1396 0 89 0 598c-89,11 -178,18 -268,21l0 -619 0 -89 0 -1403z"/>
  <polygon class="fil0" points="11819,745 11819,2361 11749,2281 11684,2358 11613,2281 11551,2354 11551,745 11551,372 11819,372 "/>
  <path class="fil1 str1" d="M13424 4099l0 -235 0 -1347 70 81 65 -78 71 78 62 -73 0 1339 0 60c-89,61 -178,120 -268,175z"/>
  <path class="fil0 str0" d="M10883 515l0 754 0 91 0 1087 -126 -66 -142 66 0 -1087 0 -222 0 -610c146,-59 268,-156 268,-13z"/>
  <polygon class="fil2" points="10539,2657 10762,2555 11066,2712 11066,4559 10432,4559 10432,2706 "/>
  <polygon class="fil3" points="12002,745 12002,2848 11752,2562 11691,2636 11619,2557 11368,2852 11368,372 12002,372 "/>
  <path class="fil0 str0" d="M13692 2443l-62 74 -71 -78 -65 78 -70 -81 0 -1302 0 -183 0 -16c90,55 179,114 268,175l0 24 0 1309z"/>
  <path class="fil5" d="M14159 3831c-213,172 -434,328 -663,463 -331,197 -676,351 -1027,455 -343,101 -692,155 -1042,155 -350,0 -700,-54 -1042,-155 -352,-104 -696,-258 -1028,-455 -338,-200 -660,-444 -961,-722 -305,-282 -588,-600 -842,-945 -240,-325 -505,-623 -789,-886 -281,-260 -579,-486 -888,-669 -297,-176 -605,-314 -921,-407 -298,-89 -602,-136 -906,-136 -304,0 -608,47 -907,136 -315,93 -624,231 -920,407 -310,183 -608,409 -888,669 -176,162 -344,338 -504,526l0 -624c62,-61 124,-122 188,-180 301,-279 623,-523 961,-723 332,-196 676,-351 1028,-455 342,-101 692,-155 1042,-155 350,0 699,54 1042,155 351,104 696,259 1027,455 338,200 661,444 962,723 304,281 587,599 842,944 239,325 504,623 789,886 280,260 578,486 888,669 296,176 605,314 920,407 299,89 603,136 907,136 304,0 608,-47 906,-136 316,-93 625,-231 921,-407 309,-183 607,-409 888,-669l17 -16 0 554z"/>
  <path class="fil6" d="M14159 1757l-17 -16c-281,-260 -579,-486 -888,-669 -296,-176 -605,-314 -921,-407 -298,-89 -602,-136 -906,-136 -304,0 -608,47 -907,136 -315,93 -624,231 -920,407 -310,183 -608,409 -888,669 -285,263 -550,561 -789,886 -255,345 -538,663 -842,945 -301,278 -624,522 -962,722 -331,197 -676,351 -1027,455 -343,101 -692,155 -1042,155 -350,0 -700,-54 -1042,-155 -352,-104 -696,-258 -1028,-455 -338,-200 -660,-444 -961,-722 -64,-59 -126,-120 -188,-181l0 -624c160,188 328,364 504,526 280,260 578,486 888,669 296,176 605,314 920,407 299,89 603,136 907,136 304,0 608,-47 906,-136 316,-93 624,-231 921,-407 309,-183 607,-409 888,-669 284,-263 549,-561 789,-886 254,-345 537,-663 842,-944 301,-279 623,-523 961,-723 332,-196 676,-351 1028,-455 342,-101 692,-155 1042,-155 350,0 699,54 1042,155 351,104 696,259 1027,455 229,136 450,291 663,463l0 554z"/>
  <path class="fil7" d="M3474 1827l90 23c-19,74 -53,130 -102,169 -48,38 -108,58 -179,58 -73,0 -132,-15 -178,-45 -46,-30 -81,-73 -105,-129 -24,-57 -36,-117 -36,-182 0,-71 14,-132 41,-185 27,-53 65,-93 115,-120 50,-27 105,-41 165,-41 68,0 125,17 171,52 46,35 78,83 97,146l-89 21c-15,-50 -38,-86 -68,-108 -30,-23 -68,-34 -113,-34 -52,0 -96,12 -131,37 -34,25 -59,59 -73,101 -14,42 -22,86 -22,130 0,58 9,109 26,152 16,43 42,75 78,96 35,22 73,32 115,32 50,0 92,-14 127,-43 35,-29 58,-72 71,-130z"/>
  <polygon class="fil8" points="2279,2066 2279,1466 2055,1466 2055,1386 2593,1386 2593,1466 2369,1466 2369,2066 "/>
  <polygon class="fil8" points="5088,2066 5088,1466 4864,1466 4864,1386 5402,1386 5402,1466 5178,1466 5178,2066 "/>
  <path class="fil7" d="M4215 1799l0 -80 287 0 0 252c-44,35 -90,62 -136,79 -47,18 -96,27 -145,27 -67,0 -127,-14 -182,-43 -54,-28 -95,-70 -123,-124 -28,-54 -42,-114 -42,-181 0,-66 14,-127 42,-185 27,-57 67,-100 119,-127 52,-28 111,-42 179,-42 49,0 94,8 133,24 40,16 71,38 93,66 23,29 40,66 52,112l-81 22c-11,-35 -23,-62 -38,-82 -15,-20 -37,-35 -65,-47 -28,-12 -59,-18 -93,-18 -41,0 -77,6 -107,19 -30,12 -54,29 -72,49 -19,21 -33,43 -43,67 -17,43 -26,88 -26,137 0,61 11,112 31,153 21,40 52,71 91,91 40,19 82,29 127,29 39,0 77,-7 114,-22 37,-16 65,-31 84,-49l0 -127 -199 0z"/>
  <path class="fil8" d="M5751 2066l260 -680 99 0 277 680 -103 0 -78 -206 -286 0 -74 206 -95 0zm195 -279l232 0 -71 -189c-22,-57 -38,-104 -49,-141 -9,44 -22,87 -37,130l-75 200z"/>
  <path class="fil8" d="M4815 3707l260 -680 99 0 277 680 -103 0 -78 -206 -286 0 -74 206 -95 0zm195 -279l232 0 -71 -189c-22,-57 -38,-104 -49,-141 -9,44 -22,87 -37,130l-75 200z"/>
  <polygon class="fil8" points="6024,3707 6024,3107 5800,3107 5800,3027 6338,3027 6338,3107 6114,3107 6114,3707 "/>
  <path class="fil7" d="M3288 3440l0 -80 288 0 0 252c-44,35 -90,62 -137,79 -47,18 -95,27 -144,27 -67,0 -127,-14 -182,-43 -54,-28 -96,-70 -123,-124 -28,-54 -42,-114 -42,-181 0,-66 14,-127 41,-185 28,-57 68,-99 120,-127 51,-28 111,-42 179,-42 49,0 93,8 133,24 40,16 71,38 93,66 23,29 40,66 52,112l-82 22c-10,-35 -22,-62 -37,-82 -16,-20 -37,-35 -65,-47 -28,-12 -59,-18 -94,-18 -41,0 -76,6 -106,19 -30,12 -54,29 -72,49 -19,21 -33,43 -43,67 -17,43 -26,88 -26,137 0,61 10,112 31,153 21,40 51,71 91,91 40,19 82,29 127,29 39,0 77,-7 114,-22 37,-15 65,-31 84,-49l0 -127 -200 0z"/>
  <path class="fil7" d="M4398 3468l90 23c-19,74 -53,130 -102,169 -48,39 -108,58 -179,58 -73,0 -132,-15 -178,-45 -46,-29 -81,-73 -105,-129 -24,-57 -36,-117 -36,-182 0,-71 14,-132 41,-185 27,-53 65,-93 115,-120 50,-27 105,-41 165,-41 68,0 125,17 171,52 46,35 78,83 96,146l-88 21c-15,-50 -38,-86 -68,-108 -30,-23 -68,-34 -113,-34 -52,0 -96,12 -131,37 -35,25 -59,59 -73,101 -14,42 -22,86 -22,131 0,57 9,108 26,151 16,43 42,75 78,96 35,22 73,32 115,32 50,0 92,-14 127,-43 35,-29 58,-72 71,-130z"/>
  <path class="fil8" d="M2006 3707l261 -680 99 0 276 680 -102 0 -79 -206 -286 0 -73 206 -96 0zm196 -279l231 0 -71 -189c-21,-57 -37,-104 -48,-141 -10,44 -22,87 -38,130l-74 200z"/>
  <polygon class="fil8" points="11640,2066 11640,1466 11417,1466 11417,1386 11954,1386 11954,1466 11730,1466 11730,2066 "/>
  <path class="fil8" d="M11367 3707l261 -680 99 0 276 680 -102 0 -79 -206 -286 0 -73 206 -96 0zm196 -279l231 0 -71 -189c-21,-57 -37,-104 -48,-141 -10,44 -22,87 -38,130l-74 200z"/>
  <path class="fil8" d="M9495 3707l261 -680 99 0 276 680 -102 0 -79 -206 -286 0 -73 206 -96 0zm196 -279l231 0 -71 -189c-21,-57 -37,-104 -48,-141 -10,44 -22,87 -38,130l-74 200z"/>
  <polygon class="fil8" points="9768,2066 9768,1466 9544,1466 9544,1386 10082,1386 10082,1466 9858,1466 9858,2066 "/>
  <polygon class="fil8" points="12576,3707 12576,3107 12353,3107 12353,3027 12890,3027 12890,3107 12667,3107 12667,3707 "/>
  <path class="fil8" d="M12304 2066l260 -680 99 0 276 680 -102 0 -78 -206 -286 0 -74 206 -95 0zm195 -279l231 0 -70 -189c-22,-57 -38,-104 -49,-141 -9,44 -22,87 -38,130l-74 200z"/>
  <path class="fil7" d="M10959 1827l90 23c-19,74 -53,130 -102,169 -48,38 -108,58 -179,58 -73,0 -132,-15 -178,-45 -46,-30 -81,-73 -105,-129 -23,-57 -35,-117 -35,-182 0,-71 13,-132 40,-185 27,-53 65,-93 115,-120 50,-27 105,-41 165,-41 68,0 125,17 171,52 46,35 78,83 97,146l-89 21c-15,-50 -38,-86 -68,-108 -30,-23 -68,-34 -113,-34 -52,0 -96,12 -131,37 -34,25 -59,59 -73,101 -14,42 -22,86 -22,130 0,58 9,109 26,152 16,43 42,75 78,96 35,22 74,32 115,32 50,0 92,-14 127,-43 35,-29 59,-72 71,-130z"/>
  <path class="fil7" d="M10776 3440l0 -80 287 0 0 252c-44,35 -89,62 -136,79 -47,18 -96,27 -145,27 -67,0 -127,-14 -182,-43 -54,-28 -95,-70 -123,-124 -28,-54 -42,-114 -42,-181 0,-66 14,-127 42,-185 27,-57 67,-99 119,-127 52,-28 112,-42 179,-42 49,0 94,8 133,24 40,16 71,38 94,66 22,29 39,66 51,112l-81 22c-10,-35 -23,-62 -38,-82 -15,-20 -37,-35 -65,-47 -28,-12 -59,-18 -93,-18 -41,0 -77,6 -107,19 -30,12 -54,29 -72,49 -18,21 -33,43 -43,67 -17,43 -26,88 -26,137 0,61 11,112 31,153 21,40 52,71 91,91 40,19 82,29 127,29 39,0 77,-7 114,-22 37,-15 65,-31 84,-49l0 -127 -199 0z"/>
  <path class="fil7" d="M3617 2177l0 -379 42 0 0 36c10,-14 22,-25 34,-32 13,-7 28,-10 46,-10 23,0 44,6 62,18 18,12 31,29 40,51 9,22 14,46 14,72 0,28 -5,53 -15,75 -10,23 -25,40 -44,52 -19,12 -39,18 -60,18 -16,0 -30,-3 -42,-10 -12,-6 -23,-15 -30,-25l0 134 -47 0zm42 -240c0,35 7,61 22,77 14,17 31,26 51,26 21,0 39,-9 53,-26 15,-18 22,-45 22,-81 0,-35 -7,-61 -21,-79 -15,-17 -32,-26 -52,-26 -19,0 -37,10 -52,28 -15,18 -23,45 -23,81z"/>
  <path class="fil7" d="M3609 3825l0 -380 43 0 0 36c10,-13 21,-24 34,-31 12,-7 27,-10 45,-10 24,0 44,6 62,18 18,12 31,29 41,50 9,22 13,46 13,73 0,27 -5,53 -15,75 -10,23 -24,40 -44,52 -19,12 -39,18 -60,18 -16,0 -30,-4 -42,-10 -12,-7 -22,-15 -30,-25l0 134 -47 0zm43 -241c0,35 7,61 21,78 14,17 32,26 52,26 20,0 38,-9 53,-27 14,-17 22,-44 22,-81 0,-34 -7,-61 -22,-78 -14,-17 -31,-26 -51,-26 -20,0 -37,9 -53,28 -15,18 -22,45 -22,80z"/>
  <path class="fil7" d="M130 2095l78 -5c6,38 20,67 41,86 21,19 47,29 77,29 37,0 68,-14 93,-41 24,-27 37,-63 37,-109 0,-43 -12,-76 -36,-101 -24,-25 -55,-37 -94,-37 -25,0 -47,5 -66,16 -19,11 -34,26 -46,43l-71 -10 59 -315 304 0 0 72 -243 0 -33 165c37,-25 75,-38 115,-38 54,0 99,18 135,55 37,38 56,85 56,143 0,56 -17,104 -49,144 -39,50 -93,75 -161,75 -55,0 -101,-16 -136,-47 -35,-31 -55,-73 -60,-125zm498 -235l-20 -114 0 -103 86 0 0 103 -20 114 -46 0z"/>
  <path class="fil7" d="M130 3218l75 -11c9,43 23,74 44,93 21,19 46,28 76,28 36,0 66,-12 90,-37 24,-24 37,-55 37,-91 0,-34 -12,-63 -34,-85 -23,-23 -52,-34 -87,-34 -14,0 -32,3 -53,8l9 -66c5,1 9,1 12,1 32,0 61,-8 87,-25 25,-17 38,-42 38,-77 0,-28 -9,-50 -28,-69 -19,-18 -43,-27 -72,-27 -30,0 -54,10 -74,28 -19,19 -32,47 -37,84l-76 -14c10,-51 30,-90 63,-118 33,-27 73,-41 122,-41 33,0 64,7 92,21 28,15 50,34 65,59 15,25 22,51 22,79 0,26 -7,50 -21,72 -14,21 -35,39 -63,52 36,8 64,25 84,52 20,26 30,59 30,99 0,53 -19,99 -58,136 -39,37 -89,56 -148,56 -54,0 -99,-16 -134,-49 -36,-32 -56,-73 -61,-124zm498 -234l-20 -114 0 -103 86 0 0 103 -20 114 -46 0z"/>
  <path class="fil7" d="M14301 1655l79 -6c5,39 19,68 40,87 21,19 47,29 77,29 37,0 68,-14 93,-41 25,-27 37,-64 37,-109 0,-43 -12,-77 -36,-101 -23,-25 -55,-38 -94,-38 -25,0 -47,6 -66,17 -19,11 -34,26 -45,43l-72 -10 60 -315 304 0 0 72 -244 0 -33 165c37,-26 75,-38 115,-38 54,0 99,18 136,55 36,37 55,85 55,143 0,56 -16,104 -49,144 -39,50 -93,75 -161,75 -55,0 -101,-16 -136,-47 -35,-32 -55,-73 -60,-125zm498 -235l-19 -114 0 -103 85 0 0 103 -20 114 -46 0z"/>
  <path class="fil7" d="M14306 3752l75 -10c9,43 24,74 44,92 21,19 46,29 76,29 36,0 66,-13 90,-37 25,-25 37,-55 37,-91 0,-35 -11,-63 -34,-86 -23,-22 -51,-34 -86,-34 -15,0 -32,3 -54,9l9 -66c5,0 9,1 12,1 32,0 61,-9 87,-25 26,-17 38,-43 38,-78 0,-27 -9,-50 -28,-68 -18,-18 -42,-27 -72,-27 -29,0 -54,9 -73,28 -20,18 -32,46 -38,83l-75 -14c9,-50 30,-89 62,-117 33,-28 74,-42 122,-42 34,0 64,7 92,22 29,14 50,34 65,58 15,25 23,51 23,79 0,27 -8,51 -22,72 -14,22 -35,39 -63,52 36,8 64,26 85,52 20,26 30,60 30,99 0,54 -20,99 -59,136 -39,38 -88,56 -148,56 -54,0 -99,-16 -134,-48 -36,-32 -56,-74 -61,-125zm498 -234l-19 -114 0 -102 85 0 0 102 -20 114 -46 0z"/>
 </g>
</svg>