<?xml version="1.0" encoding="UTF-8"?>
<svg xmlns="http://www.w3.org/2000/svg" viewBox="0 0 400 400" width="30" height="30">
    <path fill="#FFB53C"
        d="M 137.00,92.00
           C 137.23,72.09 144.33,46.27 152.15,28.00
             152.15,28.00 161.25,8.00 161.25,8.00
             162.35,5.79 164.05,1.59 166.39,0.59
             172.77,-2.13 184.79,10.68 188.39,15.00
             189.68,16.55 192.11,20.05 194.17,20.38
             196.53,20.76 200.16,17.29 202.00,15.90
             206.71,12.35 212.83,8.05 218.00,5.31
             219.98,4.26 222.66,2.72 224.96,3.41
             227.64,4.22 229.62,7.76 231.05,10.00
             235.40,16.81 237.41,21.58 240.40,29.00
             252.21,58.35 249.52,94.04 238.00,123.00
             247.43,115.05 259.28,110.66 271.00,107.29
             299.53,99.10 332.84,101.15 362.00,105.00
             361.99,119.51 356.75,128.14 349.00,140.00
             356.63,142.41 365.85,149.46 372.00,154.61
             374.54,156.75 377.75,159.32 377.58,163.00
             377.44,166.03 373.92,170.59 372.10,173.00
             365.62,181.58 361.48,185.75 353.00,192.34
             333.81,207.22 307.09,214.28 283.00,214.00
             283.00,214.00 272.00,213.00 272.00,213.00
             272.00,213.00 280.58,221.09 280.58,221.09
             299.53,241.54 309.39,267.31 315.87,294.00
             315.87,294.00 320.13,319.00 320.13,319.00
             320.65,321.47 321.66,326.15 320.13,328.28
             318.41,330.33 313.45,330.92 311.00,330.92
             303.89,330.93 291.54,327.87 285.00,325.00
             282.86,335.64 281.14,339.18 277.20,349.00
             276.03,351.92 274.62,356.32 271.79,357.98
             267.22,360.66 256.47,355.46 252.00,353.36
             233.93,344.88 217.91,329.47 208.31,312.00
             205.21,306.36 199.72,294.10 198.24,288.00
             198.02,287.10 196.00,274.56 196.81,267.56
             193.81,276.81 189.19,284.81 182.87,293.00
             168.76,311.55 144.92,327.62 124.00,337.74
             124.00,337.74 103.00,346.95 103.00,346.95
             100.75,347.76 96.87,349.38 94.64,347.97
             92.38,346.54 90.84,341.51 90.29,339.00
             88.49,330.78 89.00,322.35 89.00,314.00
             89.00,314.00 69.00,312.71 69.00,312.71
             69.00,312.71 53.00,310.00 53.00,310.00
             53.00,310.00 53.00,301.00 53.00,301.00
             53.04,278.53 65.65,253.94 81.28,238.28
             90.51,229.04 98.19,224.59 108.00,217.00
             108.00,217.00 103.00,217.00 103.00,217.00
             76.30,216.96 43.89,199.52 23.00,183.87
             23.00,183.87 7.00,171.25 7.00,171.25
             4.82,169.41 1.45,166.86 0.71,164.00
             -0.20,160.52 2.70,157.44 5.04,155.30
             10.58,150.25 20.61,144.39 28.00,143.00
             28.00,143.00 18.28,118.00 18.28,118.00
             17.48,115.34 15.63,110.88 16.64,108.21
             17.77,105.20 23.17,103.15 26.00,102.06
             35.52,98.42 45.79,96.02 56.00,96.00
             65.37,95.99 71.59,95.65 81.00,97.46
             98.03,100.73 128.01,115.78 142.00,126.00
             139.46,113.35 136.85,105.53 137.00,92.00 Z" />
    <path fill="#FFE7E8"
        d="M 176.00,6.21
           C 173.91,4.75 170.03,1.89 167.39,3.15
             165.24,4.18 162.86,9.79 161.75,12.00
             161.75,12.00 151.80,35.00 151.80,35.00
             138.41,69.07 131.49,116.20 156.00,147.00
             156.00,147.00 141.90,128.52 141.90,128.52
             136.55,123.87 120.85,115.63 114.00,112.36
             107.06,109.06 100.36,105.37 93.00,103.03
             65.76,94.36 43.89,96.86 18.00,108.00
             21.51,126.65 28.02,133.77 31.00,144.00
             24.31,145.25 13.31,151.21 8.02,155.52
             5.67,157.42 2.11,160.55 3.25,163.96
             4.14,166.65 10.61,171.28 13.00,173.25
             23.73,182.10 31.25,187.30 43.00,194.58
             60.53,205.43 85.17,214.97 106.00,215.00
             115.33,215.01 119.78,214.72 129.00,212.57
             129.00,212.57 141.00,209.00 141.00,209.00
             135.04,211.53 130.39,213.69 124.00,215.25
             118.72,216.55 115.21,215.99 110.00,218.71
             106.33,220.63 99.58,225.93 96.00,228.63
             69.30,248.69 55.00,274.58 55.00,308.00
             55.00,308.00 71.00,310.71 71.00,310.71
             71.00,310.71 92.00,312.00 92.00,312.00
             92.00,312.00 91.09,323.00 91.09,323.00
             90.71,329.79 92.87,340.48 95.00,347.00
             103.18,345.72 124.27,335.39 132.00,331.00
             156.57,317.04 177.83,301.76 191.22,276.00
             193.24,272.11 195.44,265.19 196.50,261.06
             198.13,255.38 199.46,241.32 200.06,239.50
             200.06,239.50 199.37,249.65 199.06,258.75
             198.81,266.25 199.00,273.00 199.00,273.00
             199.03,293.46 210.92,316.58 225.01,331.00
             234.67,340.89 244.30,347.69 257.00,353.13
             259.70,354.28 267.07,357.25 269.78,356.31
             272.40,355.40 273.69,351.35 274.77,349.00
             277.69,342.62 282.39,329.81 283.00,323.00
             292.47,324.46 295.58,327.85 308.00,328.00
             310.45,328.02 316.40,328.53 317.76,326.40
             319.19,324.67 317.91,317.30 317.76,315.00
             317.76,315.00 311.35,285.00 311.35,285.00
             311.35,285.00 306.05,269.00 306.05,269.00
             298.23,247.61 287.56,227.93 269.00,213.90
             254.43,202.88 250.00,204.42 242.00,200.00
             256.15,202.85 260.55,207.70 269.00,209.76
             288.00,214.39 315.46,210.21 333.00,201.74
             346.98,194.99 356.94,188.10 366.92,176.00
             369.13,173.32 374.86,166.39 375.04,163.00
             375.22,159.50 371.43,156.96 369.00,155.00
             362.60,149.87 353.89,143.26 346.00,141.00
             352.61,129.23 359.68,121.34 360.00,107.00
             360.00,107.00 330.00,104.00 330.00,104.00
             330.00,104.00 306.00,104.00 306.00,104.00
             285.22,104.03 257.05,111.83 240.00,123.77
             229.26,131.28 226.80,135.24 219.00,145.00
             219.00,145.00 224.38,137.00 224.38,137.00
             228.09,132.36 232.56,129.43 235.29,124.00
             239.62,115.40 242.80,101.60 244.13,92.00
             248.54,60.22 243.64,31.58 225.00,5.00
             212.41,8.60 203.32,18.66 193.00,26.00
             189.46,18.78 182.59,10.82 176.00,6.21z" />
</svg>